<svg xmlns="http://www.w3.org/2000/svg" width="143.5" height="65.497" viewBox="0 0 143.5 65.497">
  <g id="Group_9" data-name="Group 9" transform="translate(3347.13 -671.74)">
    <path id="Path_1" data-name="Path 1" d="M-982.864,1560.9a4.341,4.341,0,0,0,2.513-2.531,12.341,12.341,0,0,1,6.854-7.286,3.262,3.262,0,0,1,3.062.073c.063.038.183.1.2.081.821-.928,1.884-.279,2.82-.439a1.839,1.839,0,0,1-.117.355c-1.314,2.3-2.486,4.684-3.926,6.915a5.117,5.117,0,0,0-.863,2.081c-.068.506.066.828.662.51a5.616,5.616,0,0,0,2.086-2c.6-.8,1.156-1.635,1.762-2.431.194-.255.4-.634.849-.377-.715,1-1.427,2.008-2.144,3.008a7.9,7.9,0,0,1-3.915,3.272c-1.236.043-1.578-.357-1.589-1.854a1.425,1.425,0,0,0-.027-.792c-1.206,1.1-2.239,2.378-3.845,2.863-1.287.08-1.633-.229-2.141-1.914-.018-.146.016-.366-.066-.424-.142-.1-.241.1-.347.191a11.937,11.937,0,0,1-3.216,2.065c-1.811.081-2.57-.664-2.361-2.318l.081-.824.063-.09-.084.069a12.758,12.758,0,0,1-3.941,2.908l.02,0-.161,0c-1.658.3-2.37-.8-1.846-2.356a20.822,20.822,0,0,1,2.307-4.235c.451-.728.931-1.44,1.337-2.192.2-.378.464-.809.152-1.275-.278-.26-.564-.134-.834,0a6.587,6.587,0,0,0-2.145,1.637,34.455,34.455,0,0,0-3.134,4.7,23.3,23.3,0,0,1-2.347,3.68,12.59,12.59,0,0,0-1.416.033c-.64.083-.862-.152-.724-.766l-.012.007c.142.02.147-.108.2-.184a29.531,29.531,0,0,0,2.235-3.9,8.394,8.394,0,0,0,1.258-1.947c2.05-3.5,4.078-7,6.113-10.506.063-.109.111-.227.177-.334.246-.4.056-1.095.555-1.255a4.337,4.337,0,0,1,2.143-.279c.6.223.416.688.292,1.08a14.015,14.015,0,0,1-1.44,2.651c-1.038,1.814-2.119,3.6-3.182,5.4a.205.205,0,0,0-.053.028c-.008.008,0,.027-.006.042l.056-.073a2.37,2.37,0,0,0,1.383-1.038c.812-.045,1.572-.493,2.414-.3,1.052.511,1.3,1.186.987,2.431a12.447,12.447,0,0,1-1.815,3.29,22.318,22.318,0,0,0-1.94,3.144c-.1.262-.223.536-.006.778a.484.484,0,0,0,.685.026,12.81,12.81,0,0,0,3.447-3.261c1.955-2.427,3.306-5.24,5.135-7.949-.532,0-.921-.02-1.306.006s-.472-.13-.467-.483c0-.324.1-.476.434-.435a.7.7,0,0,1,.075,0c1.57.41,2.267-.609,2.875-1.762a14.23,14.23,0,0,0,1.484-3.22.923.923,0,0,1,.978-.769c.682,0,1.364,0,2.046.005.249.311.1.607-.021.915a24.368,24.368,0,0,1-2.437,4.3c-.333.511-.155.583.331.509l1.028.043q0,.431,0,.863l-1.634.042a.734.734,0,0,0-.865.421c-.73,1.182-1.519,2.327-2.237,3.517a35.71,35.71,0,0,0-3.412,6.666C-984.081,1560.57-983.794,1560.919-982.864,1560.9Zm5.588-.113a2.238,2.238,0,0,0,1.408-.793,24.174,24.174,0,0,0,4.312-6.5,3.368,3.368,0,0,0,.3-1.085c.049-.407.011-.829-.547-.9-.414-.19-.711.08-1.016.273a12.791,12.791,0,0,0-3.559,4.046,12.408,12.408,0,0,0-1.86,3.69C-978.452,1560.326-978.005,1560.9-977.276,1560.79Z" transform="translate(-2237.23 -829.688)" fill="#d80842"/>
    <path id="Path_2" data-name="Path 2" d="M-2549.811,1560.917a3.745,3.745,0,0,0,2.069-2.146,37.567,37.567,0,0,1,3.278-5.949c.732-1.233,1.5-2.446,2.332-3.8-.482,0-.866-.018-1.247,0-.349.021-.489-.084-.489-.461s.141-.5.488-.457a.677.677,0,0,1,.076,0c1.388.343,2.122-.435,2.7-1.539a15.943,15.943,0,0,0,1.6-3.409.965.965,0,0,1,1.028-.807c.707,0,1.413.009,2.119.013a4.777,4.777,0,0,1-1,2.705c-.548,1.009-1.19,1.966-1.836,3.017h.754l.884.045v.862l-1.487.047a.9.9,0,0,0-1.052.5c-1.473,2.232-2.887,4.5-4.157,6.853a22.594,22.594,0,0,0-1.4,3.1c-.352.98.012,1.441.974,1.277a5.273,5.273,0,0,0,1.852-1.51,25.523,25.523,0,0,0,3.934-5.7c.427-.8.852-1.6,1.282-2.393.363-.671.887-.878,1.508-.438a2.121,2.121,0,0,0,2.2.189,1.361,1.361,0,0,1,1.165-.115,1.253,1.253,0,0,1-.382,1.1,54.064,54.064,0,0,0-3.744,5.648,2.968,2.968,0,0,0-.524,2.075c.067.421.232.754.753.45a5.335,5.335,0,0,0,2.138-2.358,12.75,12.75,0,0,1,6.173-6.516,3.646,3.646,0,0,1,3.552-.12c.064.036.184.1.2.077.821-.935,1.885-.28,2.821-.439a2.883,2.883,0,0,1-.154.42c-1.306,2.353-2.536,4.748-3.979,7.023a3.93,3.93,0,0,0-.752,2.022c-.011.486.159.678.629.393a5.525,5.525,0,0,0,2.058-1.956c.5-.663.947-1.371,1.437-2.045.413-.567.819-1.186,1.742-.737-1.414,1.719-2.395,3.815-4.224,5.243a4.214,4.214,0,0,1-2.337.975c-1.087.07-1.448-.235-1.615-1.327-.029-.19-.062-.38-.105-.637-.535.448-1.011.857-1.5,1.25a4.411,4.411,0,0,1-1.438.826c-1.611.5-2.3.069-3.041-1.893-.272.24-.522.49-.8.7a6.013,6.013,0,0,1-1.134.746,2.429,2.429,0,0,1-2.719-.1c-.816-.7-.619-1.643-.344-2.534a9.06,9.06,0,0,1,1.136-2.3c.091-.138.354-.246.146-.483l-.012.005a.729.729,0,0,0,.1.076,34.945,34.945,0,0,0,2.918-3.193,4.719,4.719,0,0,1-1.6-.051c-.386-.347-.527.055-.7.252-.394.44-.456,1.064-.758,1.536-1.653,2.587-3.343,5.152-5.9,6.977a4.814,4.814,0,0,1-2.146.289,1.442,1.442,0,0,1-1.161-.452c-.447-.681-.83-.462-1.341-.117a4.723,4.723,0,0,1-3.131.577,1.41,1.41,0,0,1-1.187-1.442,4.585,4.585,0,0,1,.528-2.251c.22-.505.481-.994.725-1.49l-.014-.029.15-.241c.12-.129.285-.242.162-.456l-.011.014c.451-.145.484-.614.717-.928.05-.091.217-.161.053-.292l0,.007c.282.076.3-.19.377-.326a11.6,11.6,0,0,0,1.748-3.575.608.608,0,0,1,.667-.5,9.878,9.878,0,0,1,2.183.008,4.606,4.606,0,0,1-.839,2.388c-1.125,1.907-2.312,3.778-3.459,5.672a2.521,2.521,0,0,0-.544,1.464C-2550.688,1560.814-2550.468,1561.16-2549.811,1560.917Zm24.148-9.483a1.753,1.753,0,0,0-1.368.533,19.885,19.885,0,0,0-4.623,6.291,3.128,3.128,0,0,0-.412,1.592c.021.623.281.952.941.862a2.244,2.244,0,0,0,1.411-.793,24.113,24.113,0,0,0,4.318-6.513,3.287,3.287,0,0,0,.295-1.087C-2525.055,1551.911-2525.094,1551.484-2525.663,1551.434Z" transform="translate(-756.563 -829.607)" fill="#d90d41"/>
    <path id="Path_3" data-name="Path 3" d="M-1550.878,1510.525c-.38.036-.611.332-.892.529a5.134,5.134,0,0,1-2.6.928,2.529,2.529,0,0,1-2.906-2.552,6.792,6.792,0,0,1,.9-3.773,12.736,12.736,0,0,1,6.605-5.525,16.176,16.176,0,0,1,9.186-1.118.516.516,0,0,0,.5.127l-.014,0c.14.193.343.169.542.155,0,0,0,0,0,0,.194.112.381.236.581.336a4.27,4.27,0,0,1,2.4,4.728,5.993,5.993,0,0,1-3.154,4.186,6.808,6.808,0,0,0-1.43.8l.006,0c-.181-.025-.358-.043-.468.151l.012-.005a.523.523,0,0,0-.508.135l-.855.166c-.222,0-.455-.059-.63.143l.006,0c-.3.014-.822-.092-.347.456a3.536,3.536,0,0,1,.347,4.131,14.929,14.929,0,0,0-1.268,3.051c-.167.825.086,1.145.948,1.151a3.833,3.833,0,0,0,2.6-2.2,49.155,49.155,0,0,1,2.755-4.679,6.112,6.112,0,0,0,.853-2,.7.7,0,0,1,.778-.656c.7-.007,1.406,0,2.11,0a4.174,4.174,0,0,1-.862,2.452c-1.116,1.89-2.288,3.745-3.428,5.62a2.719,2.719,0,0,0-.55,1.389c0,.225-.045.491.191.615s.42-.057.583-.217a11.19,11.19,0,0,0,4.426-4.406c.107-.211.133-.821.681-.391,0,0,.187-.213.28-.332.94-1.215,1.925-2.4,2.8-3.654a2.863,2.863,0,0,1,3.181-1.121.723.723,0,0,1-.139.645,6.853,6.853,0,0,0-.9,2.779,34.061,34.061,0,0,1-1.039,4.019,6.492,6.492,0,0,1-3.529,3.831l.012,0a.748.748,0,0,0-.615.124c-1.047.027-2.141.235-2.892-.809-.189-.262-.362-.033-.505.071a5.015,5.015,0,0,1-3.121.924c-1.239-.019-1.493-.183-1.922-1.476a5.736,5.736,0,0,1-4.174,1.172,3.142,3.142,0,0,1-1.157-.735l-.2-.043.014.01a5.114,5.114,0,0,1,.035-2.8,16.211,16.211,0,0,1,.994-2.026c.585-1.131,1.468-2.111,1.717-3.414.2-1.073.094-1.239-.961-1.349a2.574,2.574,0,0,1-.429-.12c-.223-.437.079-.535.4-.621,3.438-.127,5.963-1.9,6.788-4.787a3.341,3.341,0,0,0-.572-3.34,4.205,4.205,0,0,0-3.759-1.549,12.321,12.321,0,0,0-9.159,4.332,7.06,7.06,0,0,0-1.731,3.792,2.034,2.034,0,0,0,.8,2.145,1.6,1.6,0,0,0,2.021-.3c.521-.473,1.05-.2,1.576-.261a2.556,2.556,0,0,1-.678,1.039c-.124-.009-.236,0-.246.164Zm15.565,7.311a1.48,1.48,0,0,1,.172.923c-.049.522.059,1.049.826.846a1.886,1.886,0,0,0,.768-.595,13.624,13.624,0,0,0,2.437-6.193,2.225,2.225,0,0,0,.242-1.13c-1.663,2-3.238,3.863-4.78,5.756C-1536,1517.88-1535.593,1517.844-1535.313,1517.836Z" transform="translate(-1705.542 -788.09)" fill="#da1042"/>
    <path id="Path_4" data-name="Path 4" d="M-2956.262,1710.787a5.349,5.349,0,0,0,2.007-1.893,30.443,30.443,0,0,0,4.242-7.452c.077-.2.121-.422.424-.453a11.122,11.122,0,0,1,2.4-.1,1.347,1.347,0,0,1-.2.932c-.942,2.062-2.211,3.944-3.261,5.945a4.546,4.546,0,0,0-.751,2.261c.026.746.29.934,1.062.79a3.291,3.291,0,0,0,1.769-1.224,16.461,16.461,0,0,0,3.609-7.125,2.786,2.786,0,0,0,.041-.9c-.137-1.339.2-1.7,1.527-1.58a1.593,1.593,0,0,1,.39,1.381,10.928,10.928,0,0,1-.889,2.87,20.627,20.627,0,0,1-4.154,5.9,6.31,6.31,0,0,1-3.7,2.2c-1.674-.022-2.194-.542-2.14-2.135.016-.325.03-.65.045-.976l.041-.058-.033.066a8.292,8.292,0,0,1-3.785,3.007c-1.192.052-1.373-.147-1.7-1.93-.5.416-.963.823-1.45,1.2a4.021,4.021,0,0,1-1.8.917c-1.7.278-2.584-.448-2.663-2.187a4.622,4.622,0,0,1,.365-2.069,12.778,12.778,0,0,1,6.558-6.9,3.812,3.812,0,0,1,2.057-.362,2.032,2.032,0,0,1,.9.647c.371.56.4.132.479-.163a1.025,1.025,0,0,1,1.053-.517c.6.042,1.207.027,1.81.036-.123.274-.224.561-.372.821-1.3,2.271-2.469,4.615-3.893,6.815a3.332,3.332,0,0,0-.626,1.831C-2956.9,1710.876-2956.734,1711.07-2956.262,1710.787Zm-5.615.125a2.245,2.245,0,0,0,1.41-.792,24.146,24.146,0,0,0,4.315-6.505,3.312,3.312,0,0,0,.3-1.086c.046-.4.017-.833-.551-.889-.594-.158-1,.23-1.384.545a19.6,19.6,0,0,0-4.624,6.281,3.126,3.126,0,0,0-.409,1.516C-2962.816,1710.622-2962.6,1711.011-2961.877,1710.912Z" transform="translate(-363.913 -979.808)" fill="#d80842"/>
    <path id="Path_5" data-name="Path 5" d="M-3209.124,1511.672a8.62,8.62,0,0,1-2.9.075.747.747,0,0,1-.748-.6l-.013.012a1.832,1.832,0,0,1,1.307-.141,2.954,2.954,0,0,0,2.431-.827c1.831-1.809,2.806-3.918,2-6.551-.145-.215-.292-.43-.437-.645a2.764,2.764,0,0,0-1.928-1.414,9.07,9.07,0,0,0-4.25,0c-.23-.01-.472-.059-.645.164l.014,0a.5.5,0,0,0-.53.167v-.006a1.367,1.367,0,0,0-.8.18,13.237,13.237,0,0,0-3.247,2.062,8.449,8.449,0,0,0-3.432,5.426c-.221,1.405.552,2.793,1.911,2.637a2.327,2.327,0,0,0,1.914-.508,2.869,2.869,0,0,1,1.893-.7c-.2.541-.3,1.151-.907,1.434-.087.119-.345.17-.156.4l.006-.016c-.324-.192-.479.128-.686.246a6.533,6.533,0,0,1-4.255,1,2.232,2.232,0,0,1-2.073-2.131,7.478,7.478,0,0,1,2.429-6.408,15.834,15.834,0,0,1,11.861-5.135c.5.011,1,.1,1.5.158a.505.505,0,0,0,.5.118l-.018-.006c.161.225.395.176.617.166l-.009-.006a1.334,1.334,0,0,0,.288.218c4.227,1.643,3.773,6.4,1.65,8.6a8.984,8.984,0,0,1-3.16,1.974l.015,0Z" transform="translate(-116.655 -789.613)" fill="#d90d41"/>
    <path id="Path_6" data-name="Path 6" d="M-1692.853,1560.271a2.563,2.563,0,0,0,.678-1.039c.706-1.28,1.562-2.464,2.365-3.682a10.647,10.647,0,0,1,4.565-3.841,4.651,4.651,0,0,1,2.627-.538q0,.3,0,.6l.005-.005a4.15,4.15,0,0,0-3.026,2.163c-1.761,2.556-3.2,5.307-4.715,8.016a20.124,20.124,0,0,1-5.085,6.229,18.988,18.988,0,0,1-4.03,2.13l.014-.005a.678.678,0,0,0-.624.148l.013,0a1.065,1.065,0,0,0-.769.143,7.931,7.931,0,0,1-3.453-.016,2.679,2.679,0,0,1-2.171-1.979,1.772,1.772,0,0,1,1.983-2.353c1,.646,1.147,1.225.481,2.255a.779.779,0,0,0,.208,1.174,1.482,1.482,0,0,0,1.128.331l-.006,0a.848.848,0,0,0,.869.03,4.717,4.717,0,0,0,2.594-1.238,7.883,7.883,0,0,0,2.619-2.735.587.587,0,0,0,.318-.424,33.849,33.849,0,0,0,3.171-5.216l-.005.018C-1692.956,1560.471-1692.928,1560.336-1692.853,1560.271Z" transform="translate(-1563.326 -837.981)" fill="#d80842"/>
    <path id="Path_7" data-name="Path 7" d="M-3334.142,1566.328c.611-.282.7-.893.908-1.434.457-.78.889-1.576,1.377-2.335a13.634,13.634,0,0,1,5.1-5.015,3.136,3.136,0,0,1,2.137-.56c.042.267.177.568-.258.648-1.448.266-2.182,1.351-2.86,2.5-1.326,2.246-2.272,4.675-3.391,7.02a14.994,14.994,0,0,1-5.709,6.887,36.487,36.487,0,0,1-3.387,1.643l.013,0a.727.727,0,0,0-.642.151,8.675,8.675,0,0,1-4.2-.044,2.555,2.555,0,0,1-1.986-3.222,1.626,1.626,0,0,1,1.817-1.342,1.428,1.428,0,0,1,.576,2.446.774.774,0,0,0,.079,1.188,1.67,1.67,0,0,0,1.438.5,5.3,5.3,0,0,0,3.292-1.155c2.631-1.908,4.2-4.615,5.54-7.49l-.006.016C-3334.093,1566.653-3334.074,1566.507-3334.142,1566.328Z" transform="translate(-0.001 -843.512)" fill="#d80842"/>
    <path id="Path_8" data-name="Path 8" d="M-702.416,1061.724v.011l0-.014Z" transform="translate(-2520.154 -371.613)" fill="#d4093b"/>
    <path id="Path_9" data-name="Path 9" d="M-1254.009,856.985c-.034-.067-.094-.132-.1-.2-.271-5.374.041-10.656,2.535-15.579.387-.763.822-1.5,1.234-2.253a18.855,18.855,0,0,1,5-4.726,13.25,13.25,0,0,1,5.61-1.551,11.82,11.82,0,0,1,6.02,1.864l2.154,1.958,1.524,2.115c.088.178.176.355.263.532a9.859,9.859,0,0,1,1.251,3.343c-.435-.876-.823-1.781-1.316-2.624a10.6,10.6,0,0,0-7.694-5.578,10.906,10.906,0,0,0-8.5,2.359c-3.555,2.693-5.525,6.417-6.74,10.6a33.705,33.705,0,0,0-1.206,8.906C-1253.979,856.431-1254,856.708-1254.009,856.985Z" transform="translate(-1994.372 -153.357)" fill="#f89132"/>
    <path id="Path_10" data-name="Path 10" d="M-1466.993,1069.1s0,0,0,0l-.01,0Z" transform="translate(-1791.583 -378.646)" fill="#d4093b"/>
    <path id="Path_11" data-name="Path 11" d="M-1459.84,1074.75h0v0Z" transform="translate(-1798.406 -384.029)" fill="#d4093b"/>
    <path id="Path_12" data-name="Path 12" d="M-1454.009,1078.45c0,.006,0,.012,0,.019l-.013-.019Z" transform="translate(-1803.952 -387.555)" fill="#d4093b"/>
    <path id="Path_13" data-name="Path 13" d="M-1450.49,1081.4a.055.055,0,0,1,0,.01l-.011-.01Z" transform="translate(-1807.305 -390.366)" fill="#d4093b"/>
    <path id="Path_14" data-name="Path 14" d="M-1447.063,1084.47a.026.026,0,0,1,0,.007l-.008-.007Z" transform="translate(-1810.574 -393.292)" fill="#d4093b"/>
    <path id="Path_15" data-name="Path 15" d="M-1443.724,1087.6a.018.018,0,0,1,0,.005l-.006-.005Z" transform="translate(-1813.756 -396.274)" fill="#d4093b"/>
    <path id="Path_16" data-name="Path 16" d="M-1440.425,1090.73a.016.016,0,0,1,0,.006l-.006-.006Z" transform="translate(-1816.901 -399.257)" fill="#d4093b"/>
    <path id="Path_17" data-name="Path 17" d="M-1434.825,1094.65a.158.158,0,0,1,0,.019l-.017-.019Z" transform="translate(-1822.228 -402.992)" fill="#d4093b"/>
    <path id="Path_18" data-name="Path 18" d="M-1431.505,1097.751c0,.005,0,.01,0,.016l-.016-.017Z" transform="translate(-1825.392 -405.946)" fill="#d4093b"/>
    <path id="Path_19" data-name="Path 19" d="M-1428.154,1100.782l0,.017-.019-.019Z" transform="translate(-1828.584 -408.834)" fill="#d4093b"/>
    <path id="Path_20" data-name="Path 20" d="M-1424.9,1103.98l-.018-.02.015,0C-1424.9,1103.968-1424.9,1103.974-1424.9,1103.98Z" transform="translate(-1831.681 -411.864)" fill="#d4093b"/>
    <path id="Path_21" data-name="Path 21" d="M-2016.247,697.8a50.606,50.606,0,0,1-4.274,10.932c-.1.2-.117.525-.538.49a51.624,51.624,0,0,0,1.546-8.93c.015-.164.031-.328.046-.492.017-.049.032-.1.048-.146a37.682,37.682,0,0,0-.29-6.544c-.138-.791-.3-1.576-.456-2.365.011-.229.041-.462-.165-.632,0-.152,0-.3,0-.456l-.163-.051.007-.016a.461.461,0,0,0-.159-.455h-.006a9.852,9.852,0,0,0-1.249-3.343c-.088-.178-.177-.355-.264-.533l-1.524-2.115-2.154-1.958h0a11.818,11.818,0,0,0-6.02-1.865h0a13.244,13.244,0,0,0-5.609,1.551,18.857,18.857,0,0,0-5,4.726c-.413.75-.847,1.49-1.234,2.253-2.494,4.923-2.806,10.2-2.535,15.579,0,.068.064.133.1.2v.979c-1-2.076-2.072-4.115-3.185-6.134l-1.823-2.735-2.739-3.174-.309-.275a.184.184,0,0,0-.148-.188.175.175,0,0,0-.152-.151.163.163,0,0,0-.16-.144.149.149,0,0,0-.157-.146c-.019-.16-.128-.2-.272-.185a.14.14,0,0,0-.156-.147.145.145,0,0,0-.156-.147.148.148,0,0,0-.158-.145.142.142,0,0,0-.165-.139c-.022-.166-.131-.2-.281-.174.005-.237-.1-.326-.334-.266-.341-.707-1.131-.883-1.64-1.391a19.784,19.784,0,0,0-5.01-1.964c-.375-.037-.75-.082-1.125-.11a10.31,10.31,0,0,0-6.157,1.3l-.155-.005a17.3,17.3,0,0,0-3.48,2.916,14.764,14.764,0,0,0-1.513,2.409,15.149,15.149,0,0,0-1.554,7.125,6.16,6.16,0,0,0,.147,1.68,16.294,16.294,0,0,0,.612,3.786c.259.807.491,1.619.809,2.411a42.849,42.849,0,0,0,3.032,5.781l2.88,3.765.29.178a42.6,42.6,0,0,0,5.923,5.62c.157.349.552.442.773.721,1.614,1.13,3.162,2.353,4.837,3.4a7.886,7.886,0,0,1-2.619,2.735,34.172,34.172,0,0,1-3.63-1.913l-.287-.1a2.666,2.666,0,0,0-1.112-.7,44.692,44.692,0,0,1-6.169-4.284,26.338,26.338,0,0,1-3.388-3.016,31.2,31.2,0,0,1-4.667-5.311,16.727,16.727,0,0,1-1.884-2.733,6.38,6.38,0,0,1-.985-1.7,11.919,11.919,0,0,1-1.375-2.729,3.593,3.593,0,0,1-.512-1.262,8.686,8.686,0,0,1-.639-2.052,14.146,14.146,0,0,1-.483-3.064,21.689,21.689,0,0,1,5.275-15.809,12.762,12.762,0,0,1,2.29-2.384,7.629,7.629,0,0,1,1.5-1.262,6.559,6.559,0,0,1,1.372-.9,12.2,12.2,0,0,1,2.713-1.44,8.049,8.049,0,0,1,1.672-.6,10.872,10.872,0,0,1,2.91-.593,13.19,13.19,0,0,1,7.017.953,14.388,14.388,0,0,1,4.908,3.014,19.152,19.152,0,0,1,3.879,4.394,20.175,20.175,0,0,1,2.4,4.008c.473-.13.263-.535.292-.809a23.363,23.363,0,0,1,4.711-12.387,15.305,15.305,0,0,1,2.585-2.624,10.922,10.922,0,0,1,3.043-1.956,11.954,11.954,0,0,1,3.933-1.412c.429-.242.978-.076,1.383-.4h4.25a8.553,8.553,0,0,0,1.849.462,11.467,11.467,0,0,1,4.078,1.8,6.767,6.767,0,0,1,2.312,1.574c.5.724,1.378,1.087,1.809,1.878a15.519,15.519,0,0,1,2.255,3.7,10.505,10.505,0,0,1,1.226,3.544,21.328,21.328,0,0,1,.544,4.655A29.023,29.023,0,0,1-2016.247,697.8Z" transform="translate(-1202.24 0)" fill="#d4093b"/>
    <path id="Path_22" data-name="Path 22" d="M-1491.576,1908.3l4.4,1.866c-1.7.178-10.363-2.045-12.949-3.118a56.9,56.9,0,0,1-5.979-2.3c.88-.82,2.014-1.279,2.926-2.055.117-.1.286.023.417.1l3.244,1.858c1.1.547,2.182,1.113,3.29,1.633a3.921,3.921,0,0,0,1.573.637c.09.2.264.193.442.174.053.152.17.17.306.149.052.15.171.166.3.151.053.147.174.158.3.15.061.143.181.155.312.139.053.147.171.163.3.151.083.156.229.16.381.155h0l.3.146h.01A.431.431,0,0,0-1491.576,1908.3Z" transform="translate(-1754.324 -1172.942)" fill="#d4093b"/>
    <path id="Path_23" data-name="Path 23" d="M-1894.6,1286.4l-2.881-3.766a42.9,42.9,0,0,1-3.031-5.781c-.318-.792-.551-1.6-.809-2.411a16.259,16.259,0,0,1-.613-3.786c.256,0,.311-.194.379-.39.215-.609.456-1.209.66-1.821.081-.241.172-.411.457-.375-.269,5.855,1.864,10.921,5.1,15.638.424.619.962,1.148,1.329,1.8l-.3,1.067Z" transform="translate(-1377.127 -568.244)" fill="#ea680f"/>
    <path id="Path_24" data-name="Path 24" d="M-1898.389,1024.617a13.736,13.736,0,0,0-5.062,10.015c-.285-.035-.376.135-.458.376-.2.612-.445,1.211-.66,1.821-.069.2-.123.385-.38.39a6.2,6.2,0,0,1-.146-1.68,15.151,15.151,0,0,1,1.553-7.125,14.87,14.87,0,0,1,1.514-2.408,17.307,17.307,0,0,1,3.48-2.916l.155.005C-1898.257,1023.6-1898.7,1024.11-1898.389,1024.617Z" transform="translate(-1374.116 -334.802)" fill="#ee751c"/>
    <path id="Path_25" data-name="Path 25" d="M-1263.02,1993.09l.008,0h-.006Z" transform="translate(-1985.956 -1259.119)" fill="#fa1757"/>
    <path id="Path_26" data-name="Path 26" d="M-1253.61,1996.84h0Z" transform="translate(-1994.922 -1262.692)" fill="#fa1757"/>
    <path id="Path_27" data-name="Path 27" d="M-1247.13,1999.95l.006,0h0Z" transform="translate(-2001.098 -1265.656)" fill="#fa1757"/>
    <path id="Path_28" data-name="Path 28" d="M-1240.68,2003.15l.007,0h0Z" transform="translate(-2007.243 -1268.705)" fill="#fa1757"/>
    <path id="Path_29" data-name="Path 29" d="M-1234.24,2006.33l.009.005h-.006Z" transform="translate(-2013.38 -1271.735)" fill="#fa1757"/>
    <path id="Path_30" data-name="Path 30" d="M-1227.63,2009.27l.01.006h-.007A.016.016,0,0,1-1227.63,2009.27Z" transform="translate(-2019.679 -1274.536)" fill="#fa1757"/>
    <path id="Path_31" data-name="Path 31" d="M-1221.177,2012.456h-.009a.066.066,0,0,1,0-.007Z" transform="translate(-2025.816 -1277.567)" fill="#fa1757"/>
    <path id="Path_32" data-name="Path 32" d="M-1547.477,1582.494l-3.244-1.858c-.132-.075-.3-.2-.417-.1-.913.776-2.046,1.235-2.926,2.055-.841-.053-1.53.58-2.371.523a19,19,0,0,0,4.029-2.13,20.116,20.116,0,0,0,5.085-6.229c1.511-2.709,2.954-5.459,4.715-8.016a4.151,4.151,0,0,1,3.026-2.162,7.452,7.452,0,0,0-1.977,1.582,38.9,38.9,0,0,0-3.546,5.848c-.321.086-.624.184-.4.621-1.45,2.541-2.8,5.152-4.969,7.194-.179.168-.257.3.015.458a31.611,31.611,0,0,0,3.6,2.06l-.014-.011c.039.139.109.131.2.043a3.136,3.136,0,0,0,1.157.735,20.808,20.808,0,0,0,2.234,1.216c.232.133.537.159.674.439a3.891,3.891,0,0,1-1.578-.637C-1545.3,1583.608-1546.382,1583.041-1547.477,1582.494Z" transform="translate(-1706.359 -850.788)" fill="#f89132"/>
    <path id="Path_33" data-name="Path 33" d="M-3200.436,1574.737a36.38,36.38,0,0,0,3.388-1.643,14.989,14.989,0,0,0,5.709-6.887c1.118-2.346,2.064-4.775,3.39-7.021.679-1.149,1.413-2.233,2.86-2.5.436-.08.3-.382.258-.648.141-.129.316-.071.478-.09l.439.645a3.939,3.939,0,0,0-3.165,2.169,42.481,42.481,0,0,0-2.38,4.638c-.1.222-.274.435-.19.71l.013-.012a9.348,9.348,0,0,0-1.105,2.182,14.549,14.549,0,0,1-8.528,8.188A2.64,2.64,0,0,1-3200.436,1574.737Z" transform="translate(-139.785 -842.566)" fill="#f89132"/>
    <path id="Path_34" data-name="Path 34" d="M-1750.953,998.2h-.009c-.4-.032-.651-.344-.964-.531-4.3-2.576-8.614-2.99-12.959-.112-.308-.507.132-1.015,0-1.522a10.31,10.31,0,0,1,6.158-1.3c.375.028.75.073,1.125.11a19.764,19.764,0,0,1,5.011,1.964c.509.508,1.3.685,1.64,1.391A.013.013,0,0,1-1750.953,998.2Z" transform="translate(-1507.619 -307.74)" fill="#ea680f"/>
    <path id="Path_35" data-name="Path 35" d="M-2678.913,1712.676a6.315,6.315,0,0,0,3.7-2.2,20.631,20.631,0,0,0,4.153-5.9,10.892,10.892,0,0,0,.89-2.87,1.592,1.592,0,0,0-.391-1.381c.905-.049,1.269.322,1.175,1.266a10.8,10.8,0,0,1-1.04,3.29c-.106.24-.354.44-.247.751l0-.008c-.153-.082-.139.05-.168.13a3.219,3.219,0,0,0-.6,1.09l.011-.014c-.179.028-.205.187-.267.315s-.258.229-.044.383l.014.029c-.437-.073-.53.33-.72.558a19.661,19.661,0,0,1-3.023,3.272A4.721,4.721,0,0,1-2678.913,1712.676Z" transform="translate(-636.747 -980.138)" fill="#ea680f"/>
    <path id="Path_36" data-name="Path 36" d="M-2384.622,1695.47c-.963.164-1.327-.3-.975-1.277a22.611,22.611,0,0,1,1.4-3.1c1.271-2.354,2.684-4.62,4.157-6.852a.9.9,0,0,1,1.052-.5,85.746,85.746,0,0,0-4.96,8.373c-.351.723-.648,1.474-.929,2.227C-2385.033,1694.745-2385.117,1695.188-2384.622,1695.47Z" transform="translate(-916.123 -964.308)" fill="#ee751c"/>
    <path id="Path_37" data-name="Path 37" d="M-953.064,1751.58a23.312,23.312,0,0,0,2.347-3.681,34.44,34.44,0,0,1,3.135-4.7,6.588,6.588,0,0,1,2.145-1.636c.27-.135.556-.261.834,0a6.688,6.688,0,0,0-2.793,2.372,48.006,48.006,0,0,0-3.146,5c-.395.676-.832,1.327-1.22,2.007A1.09,1.09,0,0,1-953.064,1751.58Z" transform="translate(-2281.314 -1019.289)" fill="#ee751c"/>
    <path id="Path_38" data-name="Path 38" d="M-2670.607,1727.669c-.771.143-1.035-.044-1.062-.79a4.547,4.547,0,0,1,.751-2.262c1.05-2,2.319-3.883,3.262-5.946a1.345,1.345,0,0,0,.2-.931c.247-.091.527-.159.709.054.213.251.021.522-.093.772-.839,1.863-1.954,3.575-2.945,5.354a12.293,12.293,0,0,0-1,2.111A1.541,1.541,0,0,0-2670.607,1727.669Z" transform="translate(-643.647 -996.654)" fill="#ea680f"/>
    <path id="Path_39" data-name="Path 39" d="M-801.548,1726.3a.485.485,0,0,1-.685-.026c-.217-.242-.1-.516.006-.778a22.325,22.325,0,0,1,1.94-3.144,12.448,12.448,0,0,0,1.815-3.29c.316-1.245.065-1.92-.987-2.431,1.472-.017,2.042.612,1.83,2.051a5.593,5.593,0,0,1-.965,2.279c-.839,1.259-1.686,2.513-2.5,3.788A2.012,2.012,0,0,0-801.548,1726.3Z" transform="translate(-2424.925 -995.681)" fill="#ea680f"/>
    <path id="Path_40" data-name="Path 40" d="M-1182.161,1729.337c-.164.16-.344.344-.584.218s-.191-.391-.19-.615a2.72,2.72,0,0,1,.55-1.389c1.141-1.875,2.313-3.731,3.429-5.62a4.18,4.18,0,0,0,.862-2.453c.833-.028.916.071.653.826a15.381,15.381,0,0,1-1.542,2.947c-.9,1.463-1.808,2.921-2.7,4.386A2.205,2.205,0,0,0-1182.161,1729.337Z" transform="translate(-2062.266 -998.388)" fill="#f89132"/>
    <path id="Path_41" data-name="Path 41" d="M-670.682,1695.565c-.93.016-1.217-.332-.922-1.184a35.73,35.73,0,0,1,3.412-6.666c.717-1.189,1.507-2.334,2.237-3.516a.733.733,0,0,1,.865-.421,85.6,85.6,0,0,0-4.957,8.37c-.35.723-.643,1.474-.933,2.224A.865.865,0,0,0-670.682,1695.565Z" transform="translate(-2549.412 -964.35)" fill="#ea680f"/>
    <path id="Path_42" data-name="Path 42" d="M-1740.043,1639.569q.152-.534.3-1.067a62.916,62.916,0,0,0,5.909,6.1c.025.257-.207.386-.291.589A42.619,42.619,0,0,1-1740.043,1639.569Z" transform="translate(-1531.399 -921.23)" fill="#ee751c"/>
    <path id="Path_43" data-name="Path 43" d="M-821.492,1559.755c1.063-1.8,2.145-3.587,3.182-5.4a14,14,0,0,0,1.44-2.652c.124-.392.3-.858-.292-1.08,1.146-.143,1.441.188,1,1.24a33.533,33.533,0,0,1-2.039,3.612c-.623,1.088-1.274,2.16-1.912,3.24a2.371,2.371,0,0,1-1.383,1.038Z" transform="translate(-2406.685 -837.46)" fill="#ea680f"/>
    <path id="Path_44" data-name="Path 44" d="M-2891.042,1520.359a8.977,8.977,0,0,0,3.161-1.975c2.124-2.2,2.576-6.957-1.65-8.6a1.325,1.325,0,0,1-.289-.218,4.771,4.771,0,0,1,4.1,4.44A6.1,6.1,0,0,1-2891.042,1520.359Z" transform="translate(-434.608 -798.367)" fill="#ee751c"/>
    <path id="Path_45" data-name="Path 45" d="M-1043.958,1729.375a6.494,6.494,0,0,0,3.529-3.832,34.05,34.05,0,0,0,1.039-4.019,6.844,6.844,0,0,1,.9-2.778.724.724,0,0,0,.139-.645c.35-.04.9-.113.551.452-.962,1.554-.94,3.361-1.43,5.032-.088.3-.3.605-.162.953a29.528,29.528,0,0,1-2.235,3.9c-.123,0-.235.012-.2.184l.012-.007c-.512.047-.867.449-1.337.591A1.7,1.7,0,0,1-1043.958,1729.375Z" transform="translate(-2194.701 -997.055)" fill="#ee751c"/>
    <path id="Path_46" data-name="Path 46" d="M-425.614,1729.42c-.6.318-.73,0-.662-.51a5.124,5.124,0,0,1,.863-2.081c1.44-2.23,2.612-4.612,3.926-6.914a1.863,1.863,0,0,0,.117-.355c.481-.065.752-.037.406.56-1.328,2.289-2.519,4.656-3.93,6.9A3.292,3.292,0,0,0-425.614,1729.42Z" transform="translate(-2783.277 -998.447)" fill="#f89132"/>
    <path id="Path_47" data-name="Path 47" d="M-2500.349,1729.387c-.656.243-.877-.1-.915-.683a2.521,2.521,0,0,1,.543-1.464c1.148-1.894,2.335-3.765,3.46-5.672a4.612,4.612,0,0,0,.839-2.388c.646-.144.688.188.53.675a15.174,15.174,0,0,1-1.659,3.2c-.909,1.477-1.844,2.938-2.713,4.438C-2500.6,1728.073-2501.088,1728.726-2500.349,1729.387Z" transform="translate(-806.026 -998.076)" fill="#ea680f"/>
    <path id="Path_48" data-name="Path 48" d="M-2787.632,1729.469c-.472.283-.633.089-.635-.4a3.343,3.343,0,0,1,.626-1.831c1.423-2.2,2.594-4.544,3.893-6.815.148-.259.249-.546.372-.82.5-.073.733-.026.4.557-1.334,2.29-2.528,4.66-3.944,6.9A3.176,3.176,0,0,0-2787.632,1729.469Z" transform="translate(-532.543 -998.489)" fill="#ea680f"/>
    <path id="Path_49" data-name="Path 49" d="M-1214.643,1519.624a6.852,6.852,0,0,1,1.43-.8,5.991,5.991,0,0,0,3.154-4.186,4.27,4.27,0,0,0-2.4-4.729c-.2-.1-.387-.223-.581-.335a4.329,4.329,0,0,1,3.477,5.657A6.933,6.933,0,0,1-1214.643,1519.624Z" transform="translate(-2032.054 -798.378)" fill="#f89132"/>
    <path id="Path_50" data-name="Path 50" d="M-2362.569,1777.6c2.558-1.825,4.247-4.391,5.9-6.977.3-.472.364-1.1.759-1.536.177-.2.317-.6.7-.251a27.577,27.577,0,0,1-1.439,3.1c-.009.013.011.048.018.072l.012,0c-.854,1-1.714,2-2.562,3a11.6,11.6,0,0,1-2.583,2.41C-2362,1777.557-2362.229,1777.841-2362.569,1777.6Z" transform="translate(-938.192 -1045.292)" fill="#ee751c"/>
    <path id="Path_51" data-name="Path 51" d="M-1978.437,1729.437c-.469.285-.64.093-.629-.393a3.949,3.949,0,0,1,.752-2.022c1.443-2.275,2.674-4.67,3.979-7.023a2.924,2.924,0,0,0,.155-.421c.517-.077.718,0,.391.567-1.327,2.288-2.519,4.651-3.928,6.892A3.3,3.3,0,0,0-1978.437,1729.437Z" transform="translate(-1303.632 -998.464)" fill="#f89132"/>
    <path id="Path_52" data-name="Path 52" d="M-2207.2,1729.882c-.521.3-.686-.028-.753-.449a2.967,2.967,0,0,1,.524-2.075,53.976,53.976,0,0,1,3.744-5.648,1.256,1.256,0,0,0,.382-1.1c.563-.175.737.032.52.561a2.677,2.677,0,0,1-.387.645,50.025,50.025,0,0,0-3.691,5.627A2.523,2.523,0,0,0-2207.2,1729.882Z" transform="translate(-1085.496 -999.412)" fill="#ee751c"/>
    <path id="Path_53" data-name="Path 53" d="M-1087.9,1608.358c-.429.09-.861.169-1.163-.267a1.239,1.239,0,0,1,.015-1.358,1.752,1.752,0,0,1,2.054-1,1.334,1.334,0,0,1,.184,1.6A2.98,2.98,0,0,1-1087.9,1608.358Z" transform="translate(-2151.533 -889.968)" fill="#d90d41"/>
    <path id="Path_54" data-name="Path 54" d="M-2406.4,1608.385c-1.031.056-1.474-.568-1.075-1.513a1.8,1.8,0,0,1,2.1-1.176,1.346,1.346,0,0,1,.149,1.7A2.929,2.929,0,0,1-2406.4,1608.385Z" transform="translate(-895.259 -889.953)" fill="#d90d41"/>
    <path id="Path_55" data-name="Path 55" d="M-1293.338,1744.041c-.862-.005-1.116-.326-.948-1.151a14.93,14.93,0,0,1,1.268-3.051,3.535,3.535,0,0,0-.347-4.131c-.475-.548.048-.441.347-.455.017.07.011.164.055.209,1.335,1.386,1.27,2.888.478,4.523a14.409,14.409,0,0,0-1.209,2.848A1.04,1.04,0,0,0-1293.338,1744.041Z" transform="translate(-1956.116 -1013.424)" fill="#f89132"/>
    <path id="Path_56" data-name="Path 56" d="M-1614.283,1768.562c.084-.2.316-.332.292-.589,1.851,1.464,3.649,3,5.636,4.282a.585.585,0,0,1-.317.424c-1.676-1.042-3.224-2.266-4.838-3.4C-1613.73,1769-1614.125,1768.91-1614.283,1768.562Z" transform="translate(-1651.236 -1044.604)" fill="#f89132"/>
    <path id="Path_57" data-name="Path 57" d="M-2245.155,1548.35h-.754c.646-1.05,1.289-2.007,1.836-3.016a4.775,4.775,0,0,0,1-2.706c.919,0,.957.043.645.864a23.458,23.458,0,0,1-2.306,4.149C-2244.877,1547.875-2245.013,1548.114-2245.155,1548.35Z" transform="translate(-1049.358 -829.873)" fill="#ee751c"/>
    <path id="Path_58" data-name="Path 58" d="M-440.825,1831.734a7.9,7.9,0,0,0,3.915-3.271c.718-1,1.43-2.006,2.145-3.008.169-.016.351-.176.5-.039s-.015.273-.1.375c-1.06,1.275-1.835,2.764-2.966,3.986a6.08,6.08,0,0,1-2.687,1.866A1.482,1.482,0,0,1-440.825,1831.734Z" transform="translate(-2769.428 -1099.288)" fill="#f89132"/>
    <path id="Path_59" data-name="Path 59" d="M-528.336,1548.279c-.486.074-.664,0-.331-.509a24.4,24.4,0,0,0,2.437-4.3c.121-.308.269-.6.021-.916.874.022.9.048.615.825a22.836,22.836,0,0,1-2.319,4.2C-528.059,1547.806-528.2,1548.043-528.336,1548.279Z" transform="translate(-2685.561 -829.799)" fill="#ee751c"/>
    <path id="Path_60" data-name="Path 60" d="M-3304.384,1863.692a1.675,1.675,0,0,1-1.439-.5.774.774,0,0,1-.079-1.188,1.427,1.427,0,0,0-.575-2.446,1.28,1.28,0,0,1,1.514.813,1.273,1.273,0,0,1-.279,1.633c-.467.415-.308.863.1,1.221A4.917,4.917,0,0,0-3304.384,1863.692Z" transform="translate(-38.738 -1131.849)" fill="#f89132"/>
    <path id="Path_61" data-name="Path 61" d="M-1662.512,1868.407a2.662,2.662,0,0,1,1.111.7,1.728,1.728,0,0,1-.323,1.817.614.614,0,0,0,.116.931,7.257,7.257,0,0,0,.667.473,1.483,1.483,0,0,1-1.128-.331.779.779,0,0,1-.209-1.174c.666-1.031.524-1.61-.481-2.255Z" transform="translate(-1605.042 -1140.308)" fill="#f89132"/>
    <path id="Path_62" data-name="Path 62" d="M-1060.38,1608.514a2.984,2.984,0,0,0,1.092-1.024,1.335,1.335,0,0,0-.185-1.6c.777-.116,1.1.133,1.117.854A1.837,1.837,0,0,1-1060.38,1608.514Z" transform="translate(-2179.052 -890.124)" fill="#f89132"/>
    <path id="Path_63" data-name="Path 63" d="M-807.876,1896.46l-.082.824a10.364,10.364,0,0,1-2.789,1.872,2.068,2.068,0,0,1-1.092.191,12.77,12.77,0,0,0,3.941-2.908Z" transform="translate(-2415.887 -1167.019)" fill="#ea680f"/>
    <path id="Path_64" data-name="Path 64" d="M-2381.725,1608.742a2.934,2.934,0,0,0,1.175-.988,1.347,1.347,0,0,0-.148-1.7c.859,0,1.231.563.926,1.409A2.1,2.1,0,0,1-2381.725,1608.742Z" transform="translate(-919.938 -890.31)" fill="#ee751c"/>
    <path id="Path_65" data-name="Path 65" d="M-2803.586,1899.593a8.3,8.3,0,0,0,3.785-3.007l-.008-.009q-.022.489-.045.976a10.059,10.059,0,0,0-1.325,1.1A3.832,3.832,0,0,1-2803.586,1899.593Z" transform="translate(-517.945 -1167.152)" fill="#ee751c"/>
    <path id="Path_66" data-name="Path 66" d="M-556.8,1907.391c1.606-.486,2.64-1.763,3.845-2.864a1.424,1.424,0,0,1,.027.792c-.475.056-.682.486-1.019.735C-554.807,1906.691-555.582,1907.507-556.8,1907.391Z" transform="translate(-2658.918 -1174.727)" fill="#ee751c"/>
    <path id="Path_67" data-name="Path 67" d="M-679.3,1917.392a11.94,11.94,0,0,0,3.216-2.065c.106-.087.205-.291.347-.19.081.058.048.278.066.424a17.8,17.8,0,0,1-2.331,1.522A2.179,2.179,0,0,1-679.3,1917.392Z" transform="translate(-2542.185 -1184.81)" fill="#ea680f"/>
    <path id="Path_68" data-name="Path 68" d="M-2211.131,1665.238v-.861c.326.012.764-.236.764.431S-2210.8,1665.225-2211.131,1665.238Z" transform="translate(-1082.498 -945.853)" fill="#ee751c"/>
    <path id="Path_69" data-name="Path 69" d="M-496.36,1665.33q0-.431,0-.863c.345-.057.622-.087.622.432S-496.015,1665.386-496.36,1665.33Z" transform="translate(-2716.509 -945.944)" fill="#ee751c"/>
    <path id="Path_70" data-name="Path 70" d="M-2773.062,1720.318c-.078.294-.109.723-.479.163a2.027,2.027,0,0,0-.9-.647A1.5,1.5,0,0,1-2773.062,1720.318Z" transform="translate(-545.721 -998.722)" fill="#ee751c"/>
    <path id="Path_71" data-name="Path 71" d="M-1585.452,1961.142a1.065,1.065,0,0,1,.769-.143A1.043,1.043,0,0,1-1585.452,1961.142Z" transform="translate(-1678.709 -1228.532)" fill="#f89132"/>
    <path id="Path_72" data-name="Path 72" d="M-1266.508,1732.241c.175-.2.408-.146.63-.143A.964.964,0,0,1-1266.508,1732.241Z" transform="translate(-1982.632 -1010.41)" fill="#f89132"/>
    <path id="Path_73" data-name="Path 73" d="M-2877.414,1506.194c-.224.01-.458.059-.618-.166C-2877.81,1506.021-2877.579,1505.984-2877.414,1506.194Z" transform="translate(-447.005 -794.989)" fill="#ee751c"/>
    <path id="Path_74" data-name="Path 74" d="M-702.519,1061.722c.21.171.18.406.169.636A.833.833,0,0,1-702.519,1061.722Z" transform="translate(-2520.054 -371.615)" fill="#f89132"/>
    <path id="Path_75" data-name="Path 75" d="M-1466.659,1069v0h0c-.177-.006-.319-.058-.338-.266h0l.007,0C-1466.764,1068.672-1466.654,1068.762-1466.659,1069Z" transform="translate(-1791.583 -378.278)" fill="#ea680f"/>
    <path id="Path_76" data-name="Path 76" d="M-3213.771,1954.673a.729.729,0,0,1,.642-.151C-3213.307,1954.723-3213.542,1954.683-3213.771,1954.673Z" transform="translate(-127.078 -1222.356)" fill="#f89132"/>
    <path id="Path_77" data-name="Path 77" d="M-1569.392,1957.959a.677.677,0,0,1,.624-.148C-1568.941,1958.009-1569.169,1957.975-1569.392,1957.959Z" transform="translate(-1694.013 -1225.49)" fill="#f89132"/>
    <path id="Path_78" data-name="Path 78" d="M-1056.76,1957.834a.748.748,0,0,1,.615-.125A.672.672,0,0,1-1056.76,1957.834Z" transform="translate(-2182.501 -1225.394)" fill="#ee751c"/>
    <path id="Path_79" data-name="Path 79" d="M-1202.038,1503.621a.517.517,0,0,1-.5-.127C-1202.357,1503.477-1202.172,1503.451-1202.038,1503.621Z" transform="translate(-2043.589 -792.569)" fill="#f89132"/>
    <path id="Path_80" data-name="Path 80" d="M-1234.965,1725.785a.521.521,0,0,1,.508-.135C-1234.589,1725.838-1234.779,1725.8-1234.965,1725.785Z" transform="translate(-2012.69 -1004.262)" fill="#f89132"/>
    <path id="Path_81" data-name="Path 81" d="M-1191.66,1506.267c-.2.015-.4.039-.542-.155A.537.537,0,0,1-1191.66,1506.267Z" transform="translate(-2053.438 -795.065)" fill="#f89132"/>
    <path id="Path_82" data-name="Path 82" d="M-1224.425,1722.648c.109-.195.287-.177.467-.152C-1224.063,1722.7-1224.25,1722.658-1224.425,1722.648Z" transform="translate(-2022.733 -1001.255)" fill="#f89132"/>
    <path id="Path_83" data-name="Path 83" d="M-2887.666,1503.662a.506.506,0,0,1-.5-.118C-2887.984,1503.53-2887.8,1503.494-2887.666,1503.662Z" transform="translate(-437.352 -792.617)" fill="#ee751c"/>
    <path id="Path_84" data-name="Path 84" d="M-705.791,1051.053l.164.051q0,.233,0,.466A.576.576,0,0,1-705.791,1051.053Z" transform="translate(-2516.941 -361.449)" fill="#f89132"/>
    <path id="Path_85" data-name="Path 85" d="M-1262.568,1993.1c-.18.02-.358.031-.448-.178A.417.417,0,0,1-1262.568,1993.1Z" transform="translate(-1985.959 -1258.952)" fill="#f89132"/>
    <path id="Path_86" data-name="Path 86" d="M-1205.884,2019.154a.429.429,0,0,1-.4-.167A.456.456,0,0,1-1205.884,2019.154Z" transform="translate(-2040.017 -1283.794)" fill="#f89132"/>
    <path id="Path_87" data-name="Path 87" d="M-709.11,1041.028a.462.462,0,0,1,.159.456A.446.446,0,0,1-709.11,1041.028Z" transform="translate(-2513.774 -351.896)" fill="#f89132"/>
    <path id="Path_88" data-name="Path 88" d="M-1459.552,1074.778l-.014,0a.222.222,0,0,1-.273-.191.008.008,0,0,0,0,0h0c.15-.027.259.008.281.174C-1459.554,1074.766-1459.553,1074.772-1459.552,1074.778Z" transform="translate(-1798.406 -383.865)" fill="#ea680f"/>
    <path id="Path_89" data-name="Path 89" d="M-1440.15,1090.891h-.016a.246.246,0,0,1-.262-.2.022.022,0,0,1,0-.005h.005c.145-.012.253.025.272.185A.121.121,0,0,1-1440.15,1090.891Z" transform="translate(-1816.901 -399.214)" fill="#ea680f"/>
    <path id="Path_90" data-name="Path 90" d="M-1253.3,1996.968c-.138.022-.258.006-.311-.15C-1253.481,1996.813-1253.358,1996.823-1253.3,1996.968Z" transform="translate(-1994.921 -1262.67)" fill="#f89132"/>
    <path id="Path_91" data-name="Path 91" d="M-1246.82,2000.107c-.137.016-.259,0-.31-.155C-1247,1999.952-1246.878,1999.962-1246.82,2000.107Z" transform="translate(-2001.097 -1265.657)" fill="#f89132"/>
    <path id="Path_92" data-name="Path 92" d="M-1240.372,2003.308c-.134.009-.259,0-.313-.155C-1240.556,2003.154-1240.432,2003.165-1240.372,2003.308Z" transform="translate(-2007.239 -1268.708)" fill="#f89132"/>
    <path id="Path_93" data-name="Path 93" d="M-1233.917,2006.469c-.136.017-.26.007-.321-.144C-1234.113,2006.334-1233.97,2006.3-1233.917,2006.469Z" transform="translate(-2013.382 -1271.73)" fill="#f89132"/>
    <path id="Path_94" data-name="Path 94" d="M-1227.313,2009.369c-.138.015-.262,0-.316-.156C-1227.493,2009.2-1227.368,2009.216-1227.313,2009.369Z" transform="translate(-2019.68 -1274.48)" fill="#f89132"/>
    <path id="Path_95" data-name="Path 95" d="M-1220.8,2012.565c-.153.006-.3,0-.384-.162A.376.376,0,0,1-1220.8,2012.565Z" transform="translate(-2025.818 -1277.52)" fill="#f89132"/>
    <path id="Path_96" data-name="Path 96" d="M-683.971,1264.392l-.048.146Z" transform="translate(-2537.688 -564.74)" fill="#ca0534"/>
    <path id="Path_97" data-name="Path 97" d="M-1424.764,1104.151c-.082-.034-.157-.073-.162-.172a.078.078,0,0,1,0-.019l.015,0A.183.183,0,0,1-1424.764,1104.151Z" transform="translate(-1831.674 -411.864)" fill="#ea680f"/>
    <path id="Path_98" data-name="Path 98" d="M-2893.769,1738.753l.143-.069Z" transform="translate(-432.01 -1016.694)" fill="#ee751c"/>
    <path id="Path_99" data-name="Path 99" d="M-1434.667,1094.813h-.015a.135.135,0,0,1-.157-.144c0-.006,0-.013,0-.02h.014a.149.149,0,0,1,.157.146C-1434.668,1094.8-1434.668,1094.807-1434.667,1094.813Z" transform="translate(-1822.228 -402.992)" fill="#ea680f"/>
    <path id="Path_100" data-name="Path 100" d="M-1428,1100.95h-.017a.145.145,0,0,1-.153-.151c0-.006,0-.012,0-.018l.016,0a.174.174,0,0,1,.152.151C-1428,1100.938-1428,1100.944-1428,1100.95Z" transform="translate(-1828.584 -408.834)" fill="#ea680f"/>
    <path id="Path_101" data-name="Path 101" d="M-814.841,1958.111l.161,0C-814.731,1958.19-814.785,1958.173-814.841,1958.111Z" transform="translate(-2413.027 -1225.783)" fill="#ea680f"/>
    <path id="Path_102" data-name="Path 102" d="M-1431.343,1097.911h-.018a.141.141,0,0,1-.158-.144.1.1,0,0,1,0-.017h.015a.162.162,0,0,1,.159.144Z" transform="translate(-1825.392 -405.946)" fill="#ea680f"/>
    <path id="Path_103" data-name="Path 103" d="M-1443.569,1087.753h0a.149.149,0,0,1-.156-.148.012.012,0,0,1,0-.005h.005a.14.14,0,0,1,.155.147A.051.051,0,0,1-1443.569,1087.753Z" transform="translate(-1813.756 -396.274)" fill="#ea680f"/>
    <path id="Path_104" data-name="Path 104" d="M-1446.911,1084.623h-.006c-.1,0-.161-.037-.157-.146a.032.032,0,0,1,0-.008h.006a.145.145,0,0,1,.156.147A.019.019,0,0,1-1446.911,1084.623Z" transform="translate(-1810.57 -393.292)" fill="#ea680f"/>
    <path id="Path_105" data-name="Path 105" d="M-1450.361,1081.552h-.008c-.1.007-.17-.024-.162-.14a.053.053,0,0,1,0-.012h.009a.149.149,0,0,1,.159.145A.036.036,0,0,0-1450.361,1081.552Z" transform="translate(-1807.275 -390.366)" fill="#ea680f"/>
    <path id="Path_106" data-name="Path 106" d="M-1453.853,1078.6l-.012,0c-.106.018-.165-.022-.166-.13,0-.007,0-.013,0-.02h.011a.142.142,0,0,1,.165.139A.079.079,0,0,1-1453.853,1078.6Z" transform="translate(-1803.942 -387.552)" fill="#ea680f"/>
    <path id="Path_107" data-name="Path 107" d="M-1212.619,2016.077l-.3-.147A.316.316,0,0,1-1212.619,2016.077Z" transform="translate(-2033.694 -1280.884)" fill="#f89132"/>
    <path id="Path_108" data-name="Path 108" d="M-546.248,1733.906a10.652,10.652,0,0,0-3.319,3.371,18.4,18.4,0,0,0-2.376,4.205,1.527,1.527,0,0,0,.225,1.7c-.729.115-1.176-.464-.965-1.268a12.409,12.409,0,0,1,1.86-3.69,12.787,12.787,0,0,1,3.559-4.046C-546.959,1733.986-546.661,1733.716-546.248,1733.906Z" transform="translate(-2662.788 -1012.08)" fill="#ee751c"/>
    <path id="Path_109" data-name="Path 109" d="M-728.159,1895.048l.084-.069-.063.09Z" transform="translate(-2495.627 -1165.629)" fill="#ea680f"/>
    <path id="Path_110" data-name="Path 110" d="M-822.621,1745.1l-.056.073c0-.014,0-.034.007-.041a.237.237,0,0,1,.053-.029Z" transform="translate(-2405.56 -1022.808)" fill="#ea680f"/>
    <path id="Path_111" data-name="Path 111" d="M-998.887,1938.285c-.036-.172.077-.184.2-.184C-998.74,1938.177-998.745,1938.3-998.887,1938.285Z" transform="translate(-2237.643 -1206.719)" fill="#fefefd"/>
    <path id="Path_112" data-name="Path 112" d="M-2098.6,1734.988a11.441,11.441,0,0,0-3.527,3.686,17.351,17.351,0,0,0-2.161,3.891,1.533,1.533,0,0,0,.227,1.7c-.66.091-.92-.239-.941-.862a3.132,3.132,0,0,1,.412-1.593,19.9,19.9,0,0,1,4.624-6.291A1.748,1.748,0,0,1-2098.6,1734.988Z" transform="translate(-1183.625 -1013.161)" fill="#ee751c"/>
    <path id="Path_113" data-name="Path 113" d="M-1095.953,1773.938c-.984.9-1.7,2.027-2.588,3a11.165,11.165,0,0,0-1.459,2.008l-.157.007c-.28.009-.691.045-.334-.393,1.542-1.893,3.117-3.76,4.78-5.756A2.225,2.225,0,0,1-1095.953,1773.938Z" transform="translate(-2140.697 -1049.211)" fill="#ee751c"/>
    <path id="Path_114" data-name="Path 114" d="M-1090.592,1903.247l.157-.007c.473.055.752.274.618.792a1.215,1.215,0,0,0,.224.984c-.768.2-.876-.323-.827-.846A1.48,1.48,0,0,0-1090.592,1903.247Z" transform="translate(-2150.263 -1173.5)" fill="#f89132"/>
    <path id="Path_115" data-name="Path 115" d="M-1353.18,1941.574c-.088.088-.159.1-.2-.043Z" transform="translate(-1899.853 -1209.989)" fill="#fdfafa"/>
    <path id="Path_116" data-name="Path 116" d="M-1420.945,1745.016c-.075.065-.1.2-.245.164C-1421.181,1745.017-1421.069,1745.008-1420.945,1745.016Z" transform="translate(-1835.234 -1022.726)" fill="#fefefd"/>
    <path id="Path_117" data-name="Path 117" d="M-2907.7,1734.6a11.522,11.522,0,0,0-3.533,3.682,17.326,17.326,0,0,0-2.165,3.89,1.531,1.531,0,0,0,.228,1.7c-.719.1-.939-.291-.946-.931a3.123,3.123,0,0,1,.41-1.516,19.6,19.6,0,0,1,4.623-6.281C-2908.694,1734.833-2908.289,1734.445-2907.7,1734.6Z" transform="translate(-412.624 -1012.771)" fill="#ee751c"/>
    <path id="Path_118" data-name="Path 118" d="M-2723.38,1895.411c.012-.021.023-.044.033-.066l-.041.058Z" transform="translate(-594.366 -1165.977)" fill="#ee751c"/>
    <path id="Path_119" data-name="Path 119" d="M-3166.8,1532.4a20.9,20.9,0,0,0-3.4,2.211,8.611,8.611,0,0,0-3.447,5.33,2.313,2.313,0,0,0,1.284,2.763c-1.358.156-2.132-1.232-1.911-2.637a8.449,8.449,0,0,1,3.432-5.425,13.256,13.256,0,0,1,3.248-2.062A1.364,1.364,0,0,1-3166.8,1532.4Z" transform="translate(-164.68 -820.108)" fill="#f89132"/>
    <path id="Path_120" data-name="Path 120" d="M-3003.142,1525.678a.833.833,0,0,1-.645.164C-3003.615,1525.619-3003.374,1525.667-3003.142,1525.678Z" transform="translate(-327.173 -813.709)" fill="#f89132"/>
    <path id="Path_121" data-name="Path 121" d="M-3014.219,1529a.553.553,0,0,1-.528.167A.493.493,0,0,1-3014.219,1529Z" transform="translate(-316.728 -816.87)" fill="#f89132"/>
    <path id="Path_122" data-name="Path 122" d="M-1198.039,1551.685c.123.531-.2.613-.612.613,0-.2,0-.4,0-.605Z" transform="translate(-2047.293 -838.502)" fill="#f89132"/>
    <path id="Path_123" data-name="Path 123" d="M-1624.3,1951.629l.87.029A.852.852,0,0,1-1624.3,1951.629Z" transform="translate(-1641.688 -1219.611)" fill="#f89132"/>
  </g>
</svg>
